<?xml version="1.0" standalone="no"?><!DOCTYPE svg PUBLIC "-//W3C//DTD SVG 1.1//EN" "http://www.w3.org/Graphics/SVG/1.1/DTD/svg11.dtd"><svg t="1753075973233" class="icon" viewBox="0 0 1024 1024" version="1.1" xmlns="http://www.w3.org/2000/svg" p-id="5051" xmlns:xlink="http://www.w3.org/1999/xlink" width="200" height="200"><path d="M933.728 591.264L488.352 967.52a31.04 31.04 0 0 0-3.296 44.064 32.144 32.144 0 0 0 44.704 3.552L975.136 638.88a31.04 31.04 0 0 0 3.296-44.064 32.144 32.144 0 0 0-44.704-3.552zM42.976 638.88l445.376 376.24a32.144 32.144 0 0 0 44.688-3.552 31.04 31.04 0 0 0-3.296-44.064L84.368 591.264a32.128 32.128 0 0 0-44.688 3.552 31.024 31.024 0 0 0 3.296 44.064z m431.44 109.552q-72.96-59.52-144.432-120.752c-77.536-66.72-131.408-117.28-149.568-141.6-31.168-41.776-34.624-46.544-44-61.584-24.64-39.568-34.368-76.08-34.368-141.056A221.328 221.328 0 0 1 324.992 63.776c46.752 0 107.456 37.264 167.76 94.4a32.096 32.096 0 0 0 22.032 8.736h5.104a32 32 0 0 0 22.512-9.264c60.8-59.952 114.224-93.872 162.176-93.872a221.312 221.312 0 0 1 222.896 219.68c0 79.392-14.288 119.872-52.928 174.24-4.448 6.272-21.584 29.744-20.8 28.8-14.208 19.568-73.6 72.864-160.912 145.296q-89.856 74.368-181.456 146.64-18.48-14.928-36.896-29.952zM324.976 1.072A284.496 284.496 0 0 0 38.4 283.472c0 76.144 12.704 124.032 43.76 173.856A797.648 797.648 0 0 0 129.184 523.2c22.048 29.536 77.376 81.456 158.96 151.664q9.696 8.368 19.808 16.976 90.512 76.8 183.136 151.168a32.176 32.176 0 0 0 39.824 0.192l16.112-12.688q86.192-68.08 171.008-137.824l15.728-13.024c93.104-77.28 152.864-130.88 171.68-156.8-0.96 1.296 16.48-22.576 21.2-29.216 45.776-64.432 64.432-117.264 64.432-210.208A284.496 284.496 0 0 0 704.576 1.072c-63.856 0-123.2 34.032-187.648 93.6-64.896-57.264-129.888-93.6-192-93.6z m172.432 112.256l22.4 22.144V104.128h-5.024v31.344l22.032-22.592q-9.952-9.392-19.904-18.208-9.6 8.928-19.52 18.64z m0 0" fill="#00CCCC" p-id="5052"></path></svg>