<?xml version="1.0" standalone="no"?><!DOCTYPE svg PUBLIC "-//W3C//DTD SVG 1.1//EN" "http://www.w3.org/Graphics/SVG/1.1/DTD/svg11.dtd"><svg t="1753019474890" class="icon" viewBox="0 0 1024 1024" version="1.1" xmlns="http://www.w3.org/2000/svg" p-id="5970" xmlns:xlink="http://www.w3.org/1999/xlink" width="200" height="200"><path d="M810.666667 199.68c-15.36 0-25.6 10.24-25.6 25.6v590.506667c0 25.6-25.6 51.2-51.2 51.2H283.306667c-30.72 0-66.56-25.6-66.56-51.2v-56.32c0-25.6 30.72-40.96 61.44-40.96h430.08c15.36 0 25.6-10.24 25.6-25.6V194.56C733.866667 138.24 692.906667 102.4 631.466667 102.4H283.306667C226.986667 102.4 170.666667 133.12 170.666667 194.56v640c5.12 46.08 51.2 81.92 97.28 87.04H733.866667c56.32 0 102.4-46.08 102.4-97.28V225.28c0-10.24-10.24-25.6-25.6-25.6z" fill="#3889FF" p-id="5971"></path><path d="M276.48 768h419.84c11.946667 0 20.48 8.533333 20.48 20.48v10.24c0 11.946667-8.533333 20.48-20.48 20.48H276.48c-11.946667 0-20.48-8.533333-20.48-20.48v-10.24c0-11.946667 8.533333-20.48 20.48-20.48z" fill="#FB5607" p-id="5972"></path></svg>