<?xml version="1.0" standalone="no"?><!DOCTYPE svg PUBLIC "-//W3C//DTD SVG 1.1//EN" "http://www.w3.org/Graphics/SVG/1.1/DTD/svg11.dtd"><svg t="1753019502287" class="icon" viewBox="0 0 1024 1024" version="1.1" xmlns="http://www.w3.org/2000/svg" p-id="7881" xmlns:xlink="http://www.w3.org/1999/xlink" width="200" height="200"><path d="M519.854243 762.658518a25.559585 25.559585 0 0 1-22.82186-25.26786V459.309555a87.517455 87.517455 0 0 1 45.509077-76.633874 91.264997 91.264997 0 0 1 90.659107-3.433377 88.886318 88.886318 0 0 1 19.635326 141.37435l-106.389808 104.213093v111.753058a26.47964 26.47964 0 0 1-26.591842 26.008392z m65.077082-344.055799a35.769955 35.769955 0 0 0-19.25384 5.587653 34.87234 34.87234 0 0 0-19.253841 32.560981v95.461347l69.206111-67.321119a35.231386 35.231386 0 0 0 10.614296-31.887771 37.92423 37.92423 0 0 0-19.433363-28.229989 43.713847 43.713847 0 0 0-17.503491-4.690038l-2.917248-1.413743h-1.436184z" fill="#009A44" p-id="7882"></path><path d="M512.314277 760.549123a25.24542 25.24542 0 0 1-15.259453-23.180905v-112.538471l-110.743241-103.539881a87.517455 87.517455 0 0 1 0.538569-126.047576 92.678741 92.678741 0 0 1 111.192048-14.676004 87.652097 87.652097 0 0 1 45.576398 76.656315v278.036222a25.761548 25.761548 0 0 1-26.143035 25.31274h-5.161286z m-54.911592-342.148368a38.50768 38.50768 0 0 0-3.971946 0.201964 42.973314 42.973314 0 0 0-17.952299 4.645157 39.562378 39.562378 0 0 0-18.917234 30.09254 35.904597 35.904597 0 0 0 11.46703 31.573605l69.116349 67.321119v-95.64087a38.013992 38.013992 0 0 0-19.478244-32.49366 38.642322 38.642322 0 0 0-20.196335-5.632534z" fill="#009A44" p-id="7883"></path><path d="M480.291865 1023.999102a58.748897 58.748897 0 0 1-54.934033-39.943864l-30.002779-84.353362h249.245223l-29.329567 84.286041a57.806401 57.806401 0 0 1-55.225758 40.011185z m-4.690038-52.016784h92.858264v-21.65496h-100.286027z m-138.748826-205.980184a21.542758 21.542758 0 0 1-11.444591-5.049084 327.382602 327.382602 0 0 1-95.326704-115.321077 337.301247 337.301247 0 0 1 59.197704-386.80471 321.750069 321.750069 0 0 1 445.935093-15.708262q8.325378 7.539965 16.089747 15.708262a336.605596 336.605596 0 0 1 93.733438 235.21999 332.252163 332.252163 0 0 1-120.504803 258.557978 26.928448 26.928448 0 0 1-37.206138-2.98457 24.953695 24.953695 0 0 1 3.05189-35.904597 283.736077 283.736077 0 0 0 103.091074-220.431784 273.323744 273.323744 0 1 0-546.355762 0.179523 285.935233 285.935233 0 0 0 110.339314 226.647768 24.998576 24.998576 0 0 1 9.963526 16.942481 24.68441 24.68441 0 0 1-5.228607 18.535748 26.591842 26.591842 0 0 1-20.712464 9.873765h-4.488075v0.583449z" fill="#009A44" p-id="7884"></path><path d="M393.514943 939.892584a26.748925 26.748925 0 0 1-17.481051-10.569415 25.222979 25.222979 0 0 1-4.667598-18.962116 26.322558 26.322558 0 0 1 22.171089-21.767162h252.903004a26.771365 26.771365 0 0 1 17.503491 10.569416 25.24542 25.24542 0 0 1 4.690038 18.984556 26.322558 26.322558 0 0 1-22.171089 21.767162z m-49.638106-170.995642a26.389879 26.389879 0 0 1-18.513307-7.472645 24.68441 24.68441 0 0 1-7.607287-17.952298 25.761548 25.761548 0 0 1 26.120594-25.2903h352.179215a25.761548 25.761548 0 0 1 26.143034 25.2903 24.68441 24.68441 0 0 1-7.607286 17.952298 26.412319 26.412319 0 0 1-18.513308 7.472645z m27.893384 84.196279a26.928448 26.928448 0 0 1-19.006996-8.302938 25.424943 25.424943 0 0 1-7.158479-18.244023v-0.62833a25.806429 25.806429 0 0 1 26.165475-25.604466h295.696796a26.344998 26.344998 0 0 1 19.433363 43.91581 26.928448 26.928448 0 0 1-18.894794 8.751745H371.770221zM523.220299 122.075629a29.172485 29.172485 0 0 1-3.074331-0.179523 26.322558 26.322558 0 0 1-23.068704-25.985952v-74.053231a26.771365 26.771365 0 0 1 26.4572-21.789602 27.511897 27.511897 0 0 1 4.084148 0.314165 26.344998 26.344998 0 0 1 22.440373 21.475437v74.053231a26.47964 26.47964 0 0 1-26.681604 26.210356h-0.157082z m383.887461 428.611125a26.412319 26.412319 0 0 1-18.513308-7.472644 24.68441 24.68441 0 0 1-7.607286-17.952298 25.761548 25.761548 0 0 1 26.120594-25.290301h76.454351a25.761548 25.761548 0 0 1 26.143035 25.290301 24.68441 24.68441 0 0 1-7.607287 17.952298 26.389879 26.389879 0 0 1-18.513307 7.472644z m-70.821817-305.166633a26.928448 26.928448 0 0 1-18.64795-9.110791 25.357622 25.357622 0 0 1-0.246844-33.391275l53.991537-52.510473a26.748925 26.748925 0 0 1 37.071497-0.112202 25.402502 25.402502 0 0 1 0.112201 36.645129l-53.56517 52.128987a26.524521 26.524521 0 0 1-17.391289 6.373066z m-629.721748 0a26.659163 26.659163 0 0 1-18.760152-7.697048L133.453459 185.626766a25.133218 25.133218 0 0 1-5.901818-18.535748 25.559585 25.559585 0 0 1 9.402517-17.705455 27.511897 27.511897 0 0 1 34.692816 0l51.006968 53.856896a25.941071 25.941071 0 0 1 0 36.084119 26.524521 26.524521 0 0 1-16.157068 6.215984z m-166.058761 305.189074A25.783989 25.783989 0 0 1 14.339959 525.463775a24.68441 24.68441 0 0 1 7.607287-17.952298 26.389879 26.389879 0 0 1 18.513308-7.450204h77.172442a25.783989 25.783989 0 0 1 26.143035 25.312741 24.68441 24.68441 0 0 1-7.607286 17.952298 26.434759 26.434759 0 0 1-18.535749 7.472644z" fill="#009A44" p-id="7885"></path></svg>