<?xml version="1.0" standalone="no"?><!DOCTYPE svg PUBLIC "-//W3C//DTD SVG 1.1//EN" "http://www.w3.org/Graphics/SVG/1.1/DTD/svg11.dtd"><svg t="1753799417300" class="icon" viewBox="0 0 1109 1024" version="1.1" xmlns="http://www.w3.org/2000/svg" p-id="16246" xmlns:xlink="http://www.w3.org/1999/xlink" width="216.6015625" height="200"><path d="M551.658757 557.176609a103.419777 103.419777 0 0 0 101.585186-82.471299 101.841175 101.841175 0 0 0-62.29079-114.171338 104.74239 104.74239 0 0 0-125.989522 37.886452 100.945211 100.945211 0 0 0 13.140797 128.933402c19.540535 19.199216 45.992789 29.865447 73.554329 29.822783z m0 74.194303c-99.323944 0-179.832657-79.228765-179.832656-176.974107 0-97.745342 80.508713-176.974107 179.832656-176.974106 99.281279 0 179.789992 79.228765 179.789992 176.974106 0 46.931417-18.943226 91.942912-52.648516 125.136224a181.325929 181.325929 0 0 1-127.141476 51.837883z m-271.903563 190.328229a463.213085 463.213085 0 0 1-86.524467-78.418132l-83.409928 80.252723 47.571391 9.130294a37.417139 37.417139 0 0 1 29.652123 29.182809l9.300953 46.846087 83.409928-86.993781z m602.471399-166.606531c111.312788-177.272761 57.725643-409.583275-120.443082-522.176011C583.614786 20.366528 346.653795 69.132537 229.239923 242.43746 111.783386 415.827714 157.22153 649.844825 331.337087 768.41065c174.072892 118.565825 412.612485 77.906152 536.084777-91.388268l14.804729-21.887107z m-61.778811 169.038431l92.070907 87.59109 9.258289-46.846087a37.374474 37.374474 0 0 1 28.414839-28.585499l47.571391-9.087629-87.719085-83.921907c-25.598955 30.548086-55.037753 57.725643-87.761749 80.850032h-1.834592z m-67.367916 38.953076a470.764777 470.764777 0 0 1-407.834013 0l-147.065995 145.914042a38.142443 38.142443 0 0 1-36.307851 7.850346 37.331809 37.331809 0 0 1-25.47096-26.665577l-17.321959-89.425682-90.193651-18.217923a37.459804 37.459804 0 0 1-27.092227-25.086976 36.691835 36.691835 0 0 1 7.935676-35.753206l142.074199-139.855623C40.618292 489.638033 85.587122 246.575958 258.508061 105.269728c172.878274-141.348895 423.91869-140.196942 595.474352 2.68789 171.555661 142.884832 214.220586 386.330891 101.201201 577.512419l144.634094 142.330188a36.691835 36.691835 0 0 1 7.893011 35.753207 37.459804 37.459804 0 0 1-27.092227 25.04431l-96.42273 18.260588-17.919268 88.743043a37.331809 37.331809 0 0 1-25.428295 26.708243 38.142443 38.142443 0 0 1-36.307851-7.807681l-151.417817-151.460483z" fill="#646566" p-id="16247"></path></svg>