<?xml version="1.0" standalone="no"?><!DOCTYPE svg PUBLIC "-//W3C//DTD SVG 1.1//EN" "http://www.w3.org/Graphics/SVG/1.1/DTD/svg11.dtd"><svg t="1754392087267" class="icon" viewBox="0 0 1024 1024" version="1.1" xmlns="http://www.w3.org/2000/svg" p-id="19738" xmlns:xlink="http://www.w3.org/1999/xlink" width="200" height="200"><path d="M512 465.4c110.5 0 200.1-89.6 200.1-200.1s-89.6-200-200.1-200-200.1 89.5-200.1 200S401.5 465.4 512 465.4zM512 959.1c204.8-0.5 343.2-0.5 349-123.3C866.8 713 785.6 608 723 556.7c-62.5-51.2-108.2-48.9-108.2-48.9l-102.8-0.3-102.8 0.4s-45.7-2.3-108.2 48.9C238.5 608 157.2 713 163 835.8c5.8 122.8 144.1 122.8 349 123.3z" p-id="19739" fill="#bfbfbf"></path></svg>