<?xml version="1.0" standalone="no"?><!DOCTYPE svg PUBLIC "-//W3C//DTD SVG 1.1//EN" "http://www.w3.org/Graphics/SVG/1.1/DTD/svg11.dtd"><svg t="1753799471091" class="icon" viewBox="0 0 1024 1024" version="1.1" xmlns="http://www.w3.org/2000/svg" p-id="19296" xmlns:xlink="http://www.w3.org/1999/xlink" width="200" height="200"><path d="M449.1 917c1.3-12.5 2.2-23.5 3.7-34.3 2.6-18.8 5.6-37.5 8.4-56.3 1.3-9.4 2.2-18.9 3.3-28.3l5.8-43.5c1.1-8.4 2.3-16.9 3.2-25.3 1.3-12.6 2.2-25.3 3.6-38 0.7-6.8 2.2-13.5 2.8-20.2 1.4-13.9-4.3-26.5-8-39.4-1.2-4.6-3-9.2-3.6-13.9-0.2-1.5 2.8-4.8 4.2-4.8 27.1-0.3 54.2-0.2 81.3-0.2 3.9 0 5.3 0.9 3.9 5.3-3.1 9.2-5.4 18.4-8 27.6-1 3.7-2.3 7.4-2.9 11.2-2.2 12.9-0.3 25.6 2.4 38.4 1.9 9.1 2.6 18.3 3.4 27.5 1.2 13.4 1.9 26.9 3.6 40.2 2.5 19.6 5.6 39 8.3 58.5 1.3 8.7 2.4 17.4 3.2 26.1 1.3 13.2 2.3 26.4 3.6 39.5 0.8 8 1.8 16 3.1 24 0.2 1.5 2.3 2.8 4.8 5.6 3.8-14.5 6.8-27 10.3-39.4 3.5-12.7 7.5-25.2 11.1-37.9 2.5-8.8 4.6-17.8 7-26.6 2.7-9.6 5.6-19.2 8.2-28.9 2.5-8.8 4.5-17.7 7-26.5 2.6-9.5 5.4-18.9 8-28.4 2.4-8.7 4.7-17.6 7.1-26.4 2.7-9.9 5.6-19.8 8.3-29.7 2.4-9.1 4.5-18.2 6.9-27.2 2.6-9.5 5.5-18.8 8.2-28.2 2.4-8.6 4.5-17.3 6.9-25.8 1-3.9 1.1-9.2 3.7-11.4 3.1-2.6 9.2-4.2 12.7-3 16.4 5.8 32.2 12.9 48.4 19.2 16.7 6.5 33.6 12.5 50.3 18.9 13.3 5.1 26.6 10.2 39.8 15.5 17 6.8 33.3 14.8 48.2 25.6 13.4 9.8 24 21.8 29.9 36.9 2.7 6.7 2.6 14.3 3.4 21.6 1.3 13.4 2 26.8 3.4 40.2 1.7 15.8 3.8 31.5 5.6 47.2l0.2 2.1c1.2 16 2.3 31.8 3.6 47.6 0.9 11 1.7 22 3.2 32.9 2.3 17.6-16.7 35.8-35.5 35.7-103-0.9-205.9-0.7-309-0.7-144.6 0-289.2 0.1-433.9 0.5-12.8 0-23.9-2.8-31.1-13-8.6-12.4-9.7-26.6-6.3-41 0.4-1.4 1.1-2.8 1.1-4.2 1.3-15.7 2.1-31.3 3.7-46.9 1.4-13.3 3.6-26.6 5.3-39.8l0.3-2.2c1.2-15.6 1-31.5 3.9-46.8 2.8-14.9 0.4-30.7 10.6-44.6 10.2-13.7 22.3-24.9 36.5-33.8 21.6-13.7 46.2-21.2 70-30.2 18.8-7.2 37.3-15 56-22.5 15.7-6.2 31.6-12.4 47.5-18.2 7.4-2.8 14.1 2.3 15.8 9.8 2.3 9.7 5.6 19.3 8.2 29 2.4 8.8 4.5 17.7 6.9 26.6 2.6 9.7 5.6 19.2 8.3 29 2.3 8.5 4.5 17.2 6.9 25.8 3.7 13.6 7.7 27.1 11.4 40.8 2.4 8.5 4.5 17.1 6.8 25.7 2.8 10 5.7 19.8 8.4 29.7 2.4 8.9 4.4 17.8 6.9 26.6 2.7 9.7 5.6 19.2 8.2 28.9 2.5 8.9 4.7 17.7 7 26.6 3.2 12.3 6.2 24.6 9.7 36.9 0.1 1.4 2.4 2.3 4.9 4.3zM320.8 308.7c2.9-15.6 6.2-35 10.1-54.3 4.5-22.9 14.8-43.5 27.5-63.1 18.2-28.5 43.6-51.7 73.7-67.3 13.8-7.2 28.4-13 44-15.4 11.6-1.7 23.2-4.7 34.8-4.8 12.1-0.1 24.3 1.9 36.2 4.3 11.2 2.3 22.4 5.4 32.9 9.7 28.9 11.8 54.4 30.7 74 55 14.7 18 26.3 37.5 34.6 58.7 4.9 12.1 7.3 25.3 10 38.1 2.4 11.6 5.1 23.5 5 35.3-0.5 16.3-2.1 32.6-4.7 48.7-1.3 9.5-4 18.8-6.2 28.1-4.1 17.9-12.1 34.3-20.6 50.5-14.5 27.6-34.1 51.1-58.5 70.9-15.8 13-33.9 22.9-53.3 29.3-17.5 5.6-35.2 9.5-53.4 8.3-29.2-1.8-57.3-11.4-81.5-27.8-21.7-14.7-40.7-32.3-54.8-54.2-10-15.1-19-30.9-26.9-47.2-6.5-13.9-10.8-29-15.1-43.8-2.3-7.4-2.6-15.4-3.6-23-1.3-10.5-2.5-21.2-4.2-36z m0 0" p-id="19297"></path></svg>