<?xml version="1.0" standalone="no"?><!DOCTYPE svg PUBLIC "-//W3C//DTD SVG 1.1//EN" "http://www.w3.org/Graphics/SVG/1.1/DTD/svg11.dtd"><svg t="1752817549996" class="icon" viewBox="0 0 1024 1024" version="1.1" xmlns="http://www.w3.org/2000/svg" p-id="4453" xmlns:xlink="http://www.w3.org/1999/xlink" width="200" height="200"><path d="M196.266667 989.866667V896c0-21.333333 8.533333-42.666667 21.333333-55.466667 12.8-12.8 34.133333-21.333333 55.466667-21.333333h119.466666v-110.933333H384c-93.866667-34.133333-174.933333-98.133333-217.6-170.666667l-4.266667-4.266667h-4.266666c-42.666667-8.533333-85.333333-29.866667-110.933334-59.733333-29.866667-34.133333-42.666667-76.8-42.666666-119.466667V217.6c0-29.866667 25.6-51.2 51.2-51.2h76.8V102.4c0-38.4 29.866667-68.266667 68.266666-68.266667h622.933334c38.4 0 68.266667 29.866667 68.266666 68.266667v64h76.8c29.866667 0 51.2 25.6 51.2 51.2v132.266667c0 42.666667-17.066667 85.333333-42.666666 119.466666s-68.266667 55.466667-110.933334 59.733334h-4.266666l-4.266667 4.266666c-42.666667 72.533333-115.2 132.266667-204.8 166.4l-8.533333 4.266667v115.2h106.666666c21.333333 0 42.666667 8.533333 55.466667 21.333333 12.8 12.8 21.333333 34.133333 21.333333 55.466667v93.866667H196.266667z m81.066666-115.2c-12.8 0-25.6 12.8-25.6 25.6v38.4h524.8v-38.4c0-12.8-12.8-25.6-25.6-25.6H277.333333z m170.666667-55.466667h145.066667v-98.133333l-17.066667 4.266666c-21.333333 4.266667-42.666667 4.266667-64 4.266667-17.066667 0-34.133333 0-51.2-4.266667l-12.8-4.266666v98.133333zM200.533333 85.333333c-8.533333 0-17.066667 8.533333-17.066666 17.066667v311.466667c0 68.266667 38.4 132.266667 110.933333 187.733333 64 46.933333 145.066667 76.8 217.6 76.8 72.533333 0 153.6-29.866667 217.6-76.8 72.533333-51.2 110.933333-119.466667 110.933333-187.733333V102.4c0-4.266667 0-8.533333-4.266666-12.8-4.266667 0-8.533333-4.266667-12.8-4.266667H200.533333zM38.4 349.866667c0 51.2 25.6 98.133333 72.533333 123.733333l29.866667 12.8-4.266667-25.6c-4.266667-17.066667-4.266667-29.866667-4.266666-46.933333V204.8H38.4v145.066667z m853.333333 64c0 12.8 0 25.6-4.266666 34.133333l-4.266667 29.866667 29.866667-21.333334c21.333333-17.066667 68.266667-64 68.266666-110.933333V204.8h-89.6v209.066667z m-234.666666-170.666667c-12.8 0-25.6-12.8-25.6-25.6s12.8-25.6 25.6-25.6c8.533333 0 17.066667 4.266667 21.333333 12.8 4.266667 8.533333 4.266667 17.066667 0 25.6-4.266667 8.533333-12.8 12.8-21.333333 12.8z m-307.2 0c-12.8 0-21.333333-8.533333-21.333334-21.333333v-12.8c0-12.8 8.533333-21.333333 21.333334-21.333334h196.266666c12.8 0 21.333333 8.533333 21.333334 21.333334v12.8c0 12.8-8.533333 21.333333-21.333334 21.333333H349.866667z" p-id="4454"></path></svg>